<svg width="100%" viewBox="0 0 680 820" xmlns="http://www.w3.org/2000/svg">
  <defs>
    <marker id="arrowC" viewBox="0 0 10 10" refX="8" refY="5" markerWidth="6" markerHeight="6" orient="auto-start-reverse">
      <path d="M2 1L8 5L2 9" fill="none" stroke="#888780" stroke-width="1.5" stroke-linecap="round" stroke-linejoin="round"/>
    </marker>
  </defs>
  <rect x="40" y="20" width="600" height="780" rx="16" fill="#F1EFE8" stroke="#888780" stroke-width="0.5"/>
  <rect x="256" y="40" width="168" height="44" rx="8" fill="#D3D1C7" stroke="#5F5E5A" stroke-width="0.5"/>
  <text font-family="sans-serif" font-size="13" font-weight="500" fill="#2C2C2A" x="340" y="58" text-anchor="middle" dominant-baseline="central">RGB image</text>
  <text font-family="sans-serif" font-size="11" fill="#5F5E5A" x="340" y="76" text-anchor="middle" dominant-baseline="central">B x 3 x 512 x 512</text>
  <line x1="340" y1="84" x2="340" y2="106" stroke="#888780" stroke-width="1.5" marker-end="url(#arrowC)"/>
  <rect x="56" y="106" width="568" height="210" rx="12" fill="#EEEDFE" stroke="#534AB7" stroke-width="0.5"/>
  <text font-family="sans-serif" font-size="13" font-weight="500" fill="#3C3489" x="340" y="127" text-anchor="middle" dominant-baseline="central">ConvNeXt-V2 encoder (pretrained, frozen phase 1)</text>
  <rect x="72" y="142" width="124" height="56" rx="8" fill="#CECBF6" stroke="#534AB7" stroke-width="0.5"/>
  <text font-family="sans-serif" font-size="13" font-weight="500" fill="#3C3489" x="134" y="162" text-anchor="middle" dominant-baseline="central">Stage 1</text>
  <text font-family="sans-serif" font-size="11" fill="#534AB7" x="134" y="180" text-anchor="middle" dominant-baseline="central">128x128 x 96</text>
  <line x1="196" y1="170" x2="218" y2="170" stroke="#534AB7" stroke-width="1.5" marker-end="url(#arrowC)"/>
  <rect x="218" y="142" width="124" height="56" rx="8" fill="#CECBF6" stroke="#534AB7" stroke-width="0.5"/>
  <text font-family="sans-serif" font-size="13" font-weight="500" fill="#3C3489" x="280" y="162" text-anchor="middle" dominant-baseline="central">Stage 2</text>
  <text font-family="sans-serif" font-size="11" fill="#534AB7" x="280" y="180" text-anchor="middle" dominant-baseline="central">64x64 x 192</text>
  <line x1="342" y1="170" x2="364" y2="170" stroke="#534AB7" stroke-width="1.5" marker-end="url(#arrowC)"/>
  <rect x="364" y="142" width="124" height="56" rx="8" fill="#CECBF6" stroke="#534AB7" stroke-width="0.5"/>
  <text font-family="sans-serif" font-size="13" font-weight="500" fill="#3C3489" x="426" y="162" text-anchor="middle" dominant-baseline="central">Stage 3</text>
  <text font-family="sans-serif" font-size="11" fill="#534AB7" x="426" y="180" text-anchor="middle" dominant-baseline="central">32x32 x 384</text>
  <line x1="488" y1="170" x2="510" y2="170" stroke="#534AB7" stroke-width="1.5" marker-end="url(#arrowC)"/>
  <rect x="510" y="142" width="100" height="56" rx="8" fill="#CECBF6" stroke="#534AB7" stroke-width="0.5"/>
  <text font-family="sans-serif" font-size="13" font-weight="500" fill="#3C3489" x="560" y="162" text-anchor="middle" dominant-baseline="central">Stage 4</text>
  <text font-family="sans-serif" font-size="11" fill="#534AB7" x="560" y="180" text-anchor="middle" dominant-baseline="central">16x16 x 768</text>
  <rect x="72" y="222" width="568" height="72" rx="8" fill="#CECBF6" stroke="#534AB7" stroke-width="0.5"/>
  <text font-family="sans-serif" font-size="13" font-weight="500" fill="#3C3489" x="356" y="246" text-anchor="middle" dominant-baseline="central">timm features_only=True / out_indices=(0,1,2,3)</text>
  <text font-family="sans-serif" font-size="11" fill="#534AB7" x="356" y="264" text-anchor="middle" dominant-baseline="central">returns [f1,f2,f3,f4] as (B,C,H,W) — no permutation needed</text>
  <text font-family="sans-serif" font-size="11" fill="#534AB7" x="356" y="282" text-anchor="middle" dominant-baseline="central">channels-first guaranteed</text>
  <line x1="560" y1="198" x2="560" y2="222" stroke="#534AB7" stroke-width="1.5" marker-end="url(#arrowC)"/>
  <line x1="340" y1="316" x2="340" y2="342" stroke="#888780" stroke-width="1.5" marker-end="url(#arrowC)"/>
  <rect x="216" y="342" width="248" height="56" rx="8" fill="#FAEEDA" stroke="#854F0B" stroke-width="0.5"/>
  <text font-family="sans-serif" font-size="13" font-weight="500" fill="#633806" x="340" y="362" text-anchor="middle" dominant-baseline="central">Bottleneck</text>
  <text font-family="sans-serif" font-size="11" fill="#854F0B" x="340" y="380" text-anchor="middle" dominant-baseline="central">Conv x2 / 768 to 256ch / 16x16</text>
  <line x1="340" y1="398" x2="340" y2="422" stroke="#888780" stroke-width="1.5" marker-end="url(#arrowC)"/>
  <rect x="160" y="422" width="360" height="56" rx="8" fill="#E1F5EE" stroke="#0F6E56" stroke-width="0.5"/>
  <text font-family="sans-serif" font-size="13" font-weight="500" fill="#085041" x="340" y="442" text-anchor="middle" dominant-baseline="central">Dec 3 — bilinear upsample + cat(f3)</text>
  <text font-family="sans-serif" font-size="11" fill="#0F6E56" x="340" y="460" text-anchor="middle" dominant-baseline="central">[256+384] to 256ch / 32x32</text>
  <line x1="340" y1="478" x2="340" y2="502" stroke="#888780" stroke-width="1.5" marker-end="url(#arrowC)"/>
  <rect x="160" y="502" width="360" height="56" rx="8" fill="#E1F5EE" stroke="#0F6E56" stroke-width="0.5"/>
  <text font-family="sans-serif" font-size="13" font-weight="500" fill="#085041" x="340" y="522" text-anchor="middle" dominant-baseline="central">Dec 2 — bilinear upsample + cat(f2)</text>
  <text font-family="sans-serif" font-size="11" fill="#0F6E56" x="340" y="540" text-anchor="middle" dominant-baseline="central">[256+192] to 128ch / 64x64</text>
  <line x1="340" y1="558" x2="340" y2="582" stroke="#888780" stroke-width="1.5" marker-end="url(#arrowC)"/>
  <rect x="160" y="582" width="360" height="56" rx="8" fill="#E1F5EE" stroke="#0F6E56" stroke-width="0.5"/>
  <text font-family="sans-serif" font-size="13" font-weight="500" fill="#085041" x="340" y="602" text-anchor="middle" dominant-baseline="central">Dec 1 — bilinear upsample + cat(f1)</text>
  <text font-family="sans-serif" font-size="11" fill="#0F6E56" x="340" y="620" text-anchor="middle" dominant-baseline="central">[128+96] to 64ch / 128x128</text>
  <line x1="340" y1="638" x2="340" y2="662" stroke="#888780" stroke-width="1.5" marker-end="url(#arrowC)"/>
  <rect x="186" y="662" width="308" height="56" rx="8" fill="#EAF3DE" stroke="#3B6D11" stroke-width="0.5"/>
  <text font-family="sans-serif" font-size="13" font-weight="500" fill="#27500A" x="340" y="682" text-anchor="middle" dominant-baseline="central">Seg head — interpolate + conv 1x1</text>
  <text font-family="sans-serif" font-size="11" fill="#3B6D11" x="340" y="700" text-anchor="middle" dominant-baseline="central">64ch to 17 logits / 512x512</text>
  <line x1="340" y1="718" x2="340" y2="742" stroke="#888780" stroke-width="1.5" marker-end="url(#arrowC)"/>
  <rect x="220" y="742" width="240" height="44" rx="8" fill="#D3D1C7" stroke="#5F5E5A" stroke-width="0.5"/>
  <text font-family="sans-serif" font-size="13" font-weight="500" fill="#2C2C2A" x="340" y="757" text-anchor="middle" dominant-baseline="central">CrossEntropyLoss</text>
  <text font-family="sans-serif" font-size="11" fill="#5F5E5A" x="340" y="775" text-anchor="middle" dominant-baseline="central">logits vs mask / ignore_index=16</text>
  <path d="M134 198 L134 370 L216 370" fill="none" stroke="#534AB7" stroke-width="1.2" stroke-dasharray="5 3" marker-end="url(#arrowC)"/>
  <path d="M280 198 L280 364 L106 364 L106 530 L160 530" fill="none" stroke="#534AB7" stroke-width="1.2" stroke-dasharray="5 3" marker-end="url(#arrowC)"/>
  <path d="M426 198 L426 334 L80 334 L80 610 L160 610" fill="none" stroke="#534AB7" stroke-width="1.2" stroke-dasharray="5 3" marker-end="url(#arrowC)"/>
  <text font-family="sans-serif" font-size="11" fill="#534AB7" x="84" y="376" dominant-baseline="central">f3</text>
  <text font-family="sans-serif" font-size="11" fill="#534AB7" x="80" y="537" dominant-baseline="central">f2</text>
  <text font-family="sans-serif" font-size="11" fill="#534AB7" x="58" y="616" dominant-baseline="central">f1</text>
  <rect x="58" y="754" width="10" height="10" rx="2" fill="#534AB7" opacity="0.8"/>
  <text font-family="sans-serif" font-size="11" fill="#5F5E5A" x="74" y="763" dominant-baseline="central">skip connections (torch.cat along channel dim)</text>
</svg>
